<?xml version="1.0" encoding="UTF-8"?>
<svg xmlns="http://www.w3.org/2000/svg" version="1.1" viewBox="0 0 966 695">
  <!-- Generator: Adobe Illustrator 29.3.1, SVG Export Plug-In . SVG Version: 2.1.0 Build 151)  -->
  <defs>
    <style>
      .st0, .st1 {
        font-family: R41Etoile-Regular, 'R41 Etoile';
        font-size: 248.74px;
      }

      .st0, .st2 {
        fill: #bdd982;
      }

      .st3, .st1 {
        fill: #698c46;
      }

      .st4 {
        stroke: #698c46;
      }

      .st4, .st5 {
        fill: none;
        stroke-miterlimit: 10;
        stroke-width: 15px;
      }

      .st5 {
        stroke: #bdd982;
      }
    </style>
  </defs>
  <g id="arrow_left">
    <g>
      <path class="st5" d="M813.18,565.21c-155.93,104.59-460.71,134.62-656.72,21.37"/>
      <path class="st2" d="M132.83,550.22c2.76-4.32,8.46-5.57,12.78-2.82,1.74,1.11,2.98,2.72,3.65,4.51l6.83,30.96c.68-.2,1.4-.2,2.06.04l8.87-27.84.72-2.27c1.54-3.27,4.94-5.46,8.81-5.26,5.14.2,9.09,4.52,8.83,9.62-.11,2.02-.77,3.78-1.93,5.31l-.04.06-2.16,1.97-.15.1-.15.08-.14.09-20.91,19.25c.49.5.88,1.2.97,1.9l30.85-6.82c.45,0,.83-.02,1.27,0,5.1.26,9.05,4.59,8.79,9.69-.26,5.1-4.53,9.09-9.63,8.83-.44-.02-.85-.08-1.25-.16l-.06-.04-2.5-.78-.2-.12-.17-.02-27.15-8.52c-.14.37-.24.66-.44.98-.21.33-.43.54-.71.82l19.7,21.47,1.6,1.75c.24.33.48.67.68,1.07,2.34,4.58.52,10.14-3.99,12.52-4.52,2.38-10.11.62-12.45-3.96-.2-.4-.33-.76-.53-1.15l-.32-1.21-6.53-29.58c-.67.21-1.39.2-2.06-.04l-8.78,27.7-.7,2.37-.08.13c-.1.3-.31.62-.51.94-2.76,4.32-8.53,5.54-12.85,2.79-4.26-2.72-5.58-8.46-2.82-12.79.25-.38.45-.71.72-.99l.08-.13.15-.09,1.25-1.11.37-.31,21.36-19.67c-.5-.5-.81-1.15-.91-1.85l-28.84,6.37-1.59.35c-3.77.5-7.56-1.38-9.39-4.9-2.38-4.52-.63-10.11,3.95-12.45,1.9-.97,3.93-1.31,5.88-.97l.07.04,2.26.72,27.7,8.79c.14-.36.24-.66.44-.99.2-.32.44-.54.71-.82l-19.68-21.64-.26-.16-1.32-1.48c-2.05-3.03-2.21-7.05-.15-10.28Z"/>
    </g>
    <g>
      <path class="st4" d="M819.99,559.07c-155.93,104.59-460.71,134.62-656.72,21.37"/>
      <path class="st3" d="M139.64,544.08c2.76-4.32,8.46-5.57,12.78-2.82,1.74,1.11,2.98,2.72,3.65,4.51l6.83,30.96c.68-.2,1.4-.2,2.06.04l8.87-27.84.72-2.27c1.54-3.27,4.94-5.46,8.81-5.26,5.14.2,9.09,4.52,8.83,9.62-.11,2.02-.77,3.78-1.93,5.31l-.04.06-2.16,1.97-.15.1-.15.08-.14.09-20.91,19.25c.49.5.88,1.2.97,1.9l30.85-6.82c.45,0,.83-.02,1.27,0,5.1.26,9.05,4.59,8.79,9.69-.26,5.1-4.53,9.09-9.63,8.83-.44-.02-.85-.08-1.25-.16l-.06-.04-2.5-.78-.2-.12-.17-.02-27.15-8.52c-.14.37-.24.66-.44.98-.21.33-.43.54-.71.82l19.7,21.47,1.6,1.75c.24.33.48.67.68,1.07,2.34,4.58.52,10.14-3.99,12.52-4.52,2.38-10.11.62-12.45-3.96-.2-.4-.33-.76-.53-1.15l-.32-1.21-6.53-29.58c-.67.21-1.39.2-2.06-.04l-8.78,27.7-.7,2.37-.08.13c-.1.3-.31.62-.51.94-2.76,4.32-8.53,5.54-12.85,2.79-4.26-2.72-5.58-8.46-2.82-12.79.25-.38.45-.71.72-.99l.08-.13.15-.09,1.25-1.11.37-.31,21.36-19.67c-.5-.5-.81-1.15-.91-1.85l-28.84,6.37-1.59.35c-3.77.5-7.56-1.38-9.39-4.9-2.38-4.52-.63-10.11,3.95-12.45,1.9-.97,3.93-1.31,5.88-.97l.07.04,2.26.72,27.7,8.79c.14-.36.24-.66.44-.99.2-.32.44-.54.71-.82l-19.68-21.64-.26-.16-1.32-1.48c-2.05-3.03-2.21-7.05-.15-10.28Z"/>
    </g>
    <g>
      <path class="st5" d="M124.38,127.53C280.31,22.94,585.09-7.08,781.1,106.16"/>
      <path class="st2" d="M804.73,142.52c-2.76,4.32-8.46,5.57-12.78,2.82-1.74-1.11-2.98-2.72-3.65-4.51l-6.83-30.96c-.68.2-1.4.2-2.06-.04l-8.87,27.84-.72,2.27c-1.54,3.27-4.94,5.46-8.81,5.26-5.14-.2-9.09-4.52-8.83-9.62.11-2.02.77-3.78,1.93-5.31l.04-.06,2.16-1.97.15-.1.15-.08.14-.09,20.91-19.25c-.49-.5-.88-1.2-.97-1.9l-30.85,6.82c-.45,0-.83.02-1.27,0-5.1-.26-9.05-4.59-8.79-9.69.26-5.1,4.53-9.09,9.63-8.83.44.02.85.08,1.25.16l.06.04,2.5.78.2.12.17.02,27.15,8.52c.14-.37.24-.66.44-.98.21-.33.43-.54.71-.82l-19.7-21.47-1.6-1.75c-.24-.33-.48-.67-.68-1.07-2.34-4.58-.52-10.14,3.99-12.52,4.52-2.38,10.11-.62,12.45,3.96.2.4.33.76.53,1.15l.32,1.21,6.53,29.58c.67-.21,1.39-.2,2.06.04l8.78-27.7.7-2.37.08-.13c.1-.3.31-.62.51-.94,2.76-4.32,8.53-5.54,12.85-2.79,4.26,2.72,5.58,8.46,2.82,12.79-.25.38-.45.71-.72.99l-.08.13-.15.09-1.25,1.11-.37.31-21.36,19.67c.5.5.81,1.15.91,1.85l28.84-6.37,1.59-.35c3.77-.5,7.56,1.38,9.39,4.9,2.38,4.52.63,10.11-3.95,12.45-1.9.97-3.93,1.31-5.88.97l-.07-.04-2.26-.72-27.7-8.79c-.14.36-.24.66-.44.99-.21.32-.44.54-.71.82l19.68,21.64.26.16,1.32,1.48c2.05,3.03,2.21,7.05.15,10.28Z"/>
    </g>
    <g>
      <path class="st4" d="M117.57,133.67C273.5,29.09,578.28-.94,774.29,112.3"/>
      <path class="st3" d="M797.92,148.66c-2.76,4.32-8.46,5.57-12.78,2.82-1.74-1.11-2.98-2.72-3.65-4.51l-6.83-30.96c-.68.2-1.4.2-2.07-.04l-8.87,27.84-.72,2.27c-1.54,3.27-4.94,5.46-8.81,5.26-5.14-.2-9.09-4.52-8.83-9.62.11-2.02.77-3.78,1.93-5.31l.04-.06,2.16-1.97.15-.1.15-.08.14-.09,20.91-19.25c-.49-.5-.88-1.2-.97-1.9l-30.85,6.82c-.45,0-.83.02-1.27,0-5.1-.26-9.05-4.59-8.79-9.69.26-5.1,4.53-9.09,9.63-8.83.44.02.85.08,1.25.16l.06.04,2.5.78.2.12.17.02,27.15,8.52c.14-.37.24-.66.44-.98.21-.33.43-.54.71-.82l-19.7-21.47-1.6-1.75c-.24-.33-.48-.67-.68-1.07-2.34-4.58-.52-10.14,3.99-12.52,4.52-2.38,10.11-.62,12.45,3.96.2.4.33.76.53,1.15l.32,1.21,6.53,29.58c.67-.21,1.39-.2,2.06.04l8.78-27.7.7-2.37.08-.13c.1-.3.31-.62.51-.94,2.76-4.32,8.53-5.54,12.85-2.79,4.26,2.72,5.58,8.46,2.82,12.79-.25.38-.45.71-.72.99l-.08.13-.15.09-1.25,1.11-.37.31-21.36,19.67c.5.5.81,1.15.91,1.85l28.84-6.37,1.59-.35c3.77-.5,7.56,1.38,9.39,4.9,2.38,4.52.63,10.11-3.95,12.45-1.9.97-3.93,1.31-5.88.97l-.07-.04-2.26-.72-27.7-8.79c-.14.36-.24.66-.44.99-.2.32-.44.54-.71.82l19.68,21.64.26.16,1.32,1.48c2.05,3.03,2.21,7.05.15,10.28Z"/>
    </g>
  </g>
  <g id="reduce">
    <text class="st0" transform="translate(.33 527.6)"><tspan x="0" y="0">by</tspan></text>
    <text class="st0" transform="translate(356.05 527.6)"><tspan x="0" y="0">Reuse</tspan></text>
    <text class="st0" transform="translate(120.86 343.12)"><tspan x="0" y="0">Reduce</tspan></text>
  </g>
  <g id="Layer_6">
    <text class="st1" transform="translate(128.28 339.54)"><tspan x="0" y="0">Reduce</tspan></text>
  </g>
  <g id="by">
    <text class="st1" transform="translate(7.76 524.01)"><tspan x="0" y="0">by</tspan></text>
  </g>
  <g id="reuse">
    <text class="st1" transform="translate(363.48 524.01)"><tspan x="0" y="0">Reuse</tspan></text>
  </g>
</svg>